<svg xmlns="http://www.w3.org/2000/svg" width="256" height="256"><path fill="#1976D2" fill-opacity=".016" fill-rule="evenodd" d="M0 128.004v128.004l128.25-.254 128.25-.254.254-127.75L257.008 0H0zm.485.496c0 70.4.119 99.053.265 63.672s.146-92.98 0-128S.485 58.1.485 128.5"/><path fill="#1976D2" fill-opacity=".291" fill-rule="evenodd" d="M125.56 18.018c-2.443 20.169-2.209 19.578-6.581 16.64-10.12-6.798-9.77-6.823-5.182.368 4.888 7.663 5.499 7.104-10.297 9.429-17.309 2.549-17.328 2.581-3 5.149 19.853 3.56 18.232 2.427 13.484 9.42-2.232 3.287-3.839 5.976-3.571 5.976s3.085-1.565 6.26-3.478c4.12-2.482 5.957-3.126 6.417-2.25.354.676 1.462 8.319 2.463 16.987 1.03 8.925 2.165 15.212 2.617 14.5.44-.693.809-3.059.821-5.259.021-4.104 2.601-22.635 3.581-25.725.499-1.572.873-1.52 4.237.592 2.03 1.275 4.738 2.873 6.017 3.551 2.23 1.183 2.275 1.138 1.089-1.092-.68-1.279-2.355-4.023-3.722-6.096s-2.307-3.917-2.089-4.097c.218-.179 6.778-1.388 14.577-2.686s14.002-2.651 13.782-3.007-3.627-.947-7.572-1.314c-7.424-.69-20.891-3.432-20.891-4.254 0-.258 1.575-2.93 3.5-5.939s3.5-5.705 3.5-5.99c0-.284-2.675 1.299-5.945 3.52S132.938 37 132.727 37c-.21 0-1.167-6.412-2.125-14.25-2.701-22.08-2.916-22.283-5.042-4.732M70.5 85.341c-10.438 3.453-19.322 10.108-28.928 21.671-15.726 18.93-19.245 27.507-14.622 35.642 3.163 5.566 6.548 7.684 13.005 8.138 4.724.332 6.118-.001 9.412-2.25 2.127-1.453 3.951-2.506 4.053-2.341 3.046 4.918 4.483 6.311 8.217 7.962 2.457 1.087 5.745 1.843 7.306 1.679 2.374-.249 3.494.532 6.841 4.765 3.642 4.608 14.004 12.183 22.912 16.75l3.196 1.638-3.021 3.253c-4.289 4.617-7.887 12.095-8.562 17.794-.855 7.213 3.049 14.736 10.234 19.723 2.96 2.054 5.398 4.06 5.419 4.456s-3.114 1.679-6.967 2.849C92.172 229.142 88 232.375 88 235.588c0 4.288 4.38 8.412 8.934 8.412 1.802 0 15.86-3.975 19.316-5.461 1.578-.679 1.75-.015 1.75 6.772 0 10.98-.273 10.689 10 10.689s10 .291 10-10.689c0-6.787.172-7.451 1.75-6.772 4.185 1.8 17.71 5.461 20.175 5.461 3.226 0 6.805-3.077 7.693-6.615 1.075-4.282-2.283-7.555-10.461-10.197-3.936-1.272-7.149-2.622-7.139-3s2.232-2.136 4.938-3.905c12.875-8.417 14.371-24.03 3.466-36.159l-4.437-4.935 7.321-4.018c9.222-5.061 17.066-11.229 19.957-15.692 1.837-2.837 2.862-3.46 5.737-3.489 4.897-.048 11.296-3.193 13.88-6.822l2.183-3.065 3.718 2.54c3.137 2.142 4.587 2.478 9.264 2.149 6.391-.45 9.842-2.572 12.887-7.928 4.051-7.124 2.306-13.177-8.032-27.864-8.029-11.406-19.46-22.012-28.662-26.593-7.326-3.647-8.243-3.853-17.238-3.875-8.453-.021-10.144.292-15.341 2.838-3.213 1.574-8.624 4.994-12.025 7.601-4.854 3.72-6.64 4.571-8.305 3.955-4.145-1.533-15.831-2.091-20.662-.986l-4.832 1.105-6.168-4.667c-9.539-7.221-15.756-9.705-25.167-10.06-4.777-.179-9.612.232-12 1.023m6.25 6.321c.688.278 1.813.278 2.5 0 .688-.277.125-.504-1.25-.504s-1.937.227-1.25.504m6.75.271c1.853.859 1.864.932.14.997-4.091.154-14.418 6.873-21.627 14.071-4.132 4.126-10.653 12.144-14.49 17.818-5.659 8.366-6.978 11.048-6.978 14.188 0 2.129.337 4.208.747 4.619 1.736 1.735 6.03-1.513 9.992-7.558 2.319-3.538 4.726-6.596 5.35-6.795 1.781-.569 4.563 2.782 3.825 4.606-.361.892-.893 3.287-1.183 5.323-.449 3.16-.081 4.147 2.522 6.75 1.676 1.676 3.918 3.048 4.981 3.048 1.795 0 1.86-.373.907-5.192-2.893-14.63 6.356-34.777 18.711-40.758 5.213-2.524 8.88-2.561 14.198-.146 5.343 2.426 8.405 7.355 8.405 13.53 0 5.972-1.052 7.975-7.243 13.785-4.794 4.499-5.003 4.911-4.475 8.848.497 3.703 3.889 8.933 5.794 8.933.4 0 3.256-4.113 6.348-9.139l5.621-9.139-.673-10.414-.673-10.413-5.89-5.329c-7.097-6.424-15.7-11.14-21.809-11.957-3.142-.42-3.896-.323-2.5.324m93.465 1.588c-3.044.734-8.444 2.704-12 4.377-6.148 2.893-6.297 3.044-3.031 3.072 14.812.129 28.705 21.904 26.587 41.675-.591 5.523-.463 6.355.976 6.355.911 0 3.029-1.372 4.705-3.048 2.603-2.603 2.971-3.59 2.522-6.75-.29-2.036-.822-4.431-1.183-5.323-.738-1.824 2.044-5.175 3.825-4.606.624.199 3.009 3.207 5.301 6.684 4.913 7.455 5.645 8.008 10.628 8.028 5.036.02 8.705-3.51 8.705-8.374 0-7.836-22.606-35.457-33-40.32-6.567-3.073-7.922-3.244-14.035-1.77M51.437 106.25 48.5 109.5l3.25-2.937c1.788-1.615 3.25-3.078 3.25-3.25 0-.773-.825-.092-3.563 2.937m93.229 6.577c-2.19 2.286-2.828 4.103-3.331 9.489l-.622 6.662 5.754 9.511c3.165 5.231 6.076 9.511 6.47 9.511 1.877 0 5.285-5.234 5.772-8.866.521-3.885.302-4.296-5.014-9.404-6.026-5.79-7.092-8.269-6.54-15.207.198-2.487.328-4.523.289-4.523-.038 0-1.289 1.272-2.778 2.827m-33.001 35.423-2.538 4.25 2.186 1.728c1.203.95 2.525 1.738 2.937 1.75S115 153.3 115 150s-.179-6-.398-6-1.541 1.912-2.937 4.25M141 149.8c0 3.41.241 6.2.535 6.2s1.648-.729 3.008-1.62l2.472-1.62-2.168-3.63c-3.521-5.897-3.847-5.841-3.847.67m-26.826 48.514c-2.842 3.026-2.747 5.08.326 7.094l2.5 1.638v-5.523c0-3.038-.147-5.523-.326-5.523s-1.304 1.042-2.5 2.314M139 201.349v5.697l2.5-1.638c1.375-.901 2.5-2.408 2.5-3.349s-1.125-2.767-2.5-4.059l-2.5-2.349z"/><path fill="#1976D2" fill-opacity=".32" fill-rule="evenodd" d="M69.905 85.833c-11.264 3.734-24.267 14.992-35.423 30.667-8.267 11.616-9.799 14.994-9.202 20.29.539 4.787 2.734 8.384 7.105 11.648 3.977 2.97 13.328 2.889 17.438-.149l2.991-2.212 4.462 4.462c4.026 4.026 4.923 4.461 9.198 4.461 4.536 0 4.999.277 10.882 6.511 5.189 5.499 18.78 15.014 23.941 16.761.732.248-.243 2.012-2.49 4.508-6.901 7.662-9.629 16.07-7.699 23.733 1.306 5.189 7.02 12.164 12.29 15.002 1.981 1.067 3.602 2.204 3.602 2.527 0 .324-3.037 1.631-6.75 2.905-10.016 3.439-11.25 4.417-11.25 8.921 0 4.998 2.8 7.63 7.973 7.494 3.19-.084 13.766-2.79 19.494-4.988 1.289-.494 1.533.552 1.533 6.585 0 10.539.455 11.041 10 11.041s10-.502 10-11.041c0-6.033.244-7.079 1.533-6.585 5.774 2.216 16.318 4.905 19.567 4.99 4.933.129 8.247-2.877 8.119-7.365-.127-4.467-1.317-5.461-10.261-8.575-4.377-1.523-7.958-3.04-7.958-3.37 0-.329 1.621-1.472 3.602-2.539 5.27-2.838 10.984-9.813 12.29-15.002 1.919-7.619-.806-16.091-7.589-23.599-1.971-2.182-3.408-4.114-3.193-4.294.214-.181 3.765-2.057 7.89-4.17 5.289-2.71 9.785-6.134 15.25-11.615 4.687-4.699 8.302-7.56 9.146-7.237 3.81 1.463 12.573-3.146 15.322-8.059.992-1.772 1.172-1.753 4.25.438 6.822 4.858 16.373 3.376 21.49-3.333 4.045-5.304 4.34-10.13 1.02-16.715-8.324-16.51-24.398-33.646-37.313-39.776-6.958-3.303-8.449-3.637-16.165-3.627-7.39.009-9.35.411-15.007 3.076-3.579 1.686-9.125 5.198-12.324 7.804-5.416 4.411-6.03 4.664-8.892 3.666-3.918-1.366-20.298-1.399-22.825-.046-1.583.847-2.92.209-7.678-3.666-12.394-10.096-26.268-13.54-38.369-9.527m5.45 5.196c-7.028 1.409-14.133 5.738-22.435 13.67-10.145 9.692-21.32 25.865-21.32 30.855 0 4.999 4.086 8.901 9.32 8.901 4.687 0 6.755-1.671 11.252-9.092 2.466-4.069 3.806-5.368 5.313-5.152 1.824.262 1.984.908 1.693 6.83-.296 5.993-.096 6.769 2.386 9.25 1.49 1.49 3.692 2.709 4.893 2.709 2.108 0 2.169-.295 1.742-8.421-.753-14.353 4.83-27.823 14.404-34.753 9.654-6.989 20.9-4.79 25.026 4.892 3.001 7.043 1.34 12.273-6.027 18.977-3.971 3.614-4.602 4.725-4.602 8.099 0 3.769 3.222 10.134 5.51 10.882.555.182 3.592-3.822 6.75-8.898l5.74-9.228v-10.14c0-11.802-.346-12.475-10.264-19.981-10.906-8.254-20.226-11.236-29.381-9.4m94.69.066c-7.224 1.412-14.836 5.743-22.045 12.544l-6.754 6.371-.173 10.05-.173 10.051 5.77 9.454c3.173 5.201 6.233 9.303 6.8 9.118 2.301-.753 5.53-7.104 5.53-10.876 0-3.937-.197-4.222-7.363-10.65-6.047-5.424-5.897-15.132.328-21.358 3.548-3.547 4.194-3.799 9.746-3.799 4.945 0 6.715.51 10.513 3.025 5.534 3.665 11.007 11.38 13.817 19.475 1.658 4.778 2.019 7.883 1.771 15.251-.306 9.074-.268 9.251 1.986 9.25 1.264-.001 3.433-1.226 4.821-2.724 2.254-2.432 2.489-3.42 2.202-9.25-.292-5.94-.143-6.527 1.652-6.527 1.292 0 3.386 2.074 6.059 6 2.247 3.3 5.312 6.595 6.812 7.322 5.114 2.478 11.667-.932 13.13-6.832.769-3.1-2.38-9.281-9.828-19.294-15.251-20.504-30.194-29.416-44.601-26.601m-48.394 40.655c.395 18.455.972 28.147 1.722 28.934 2.138 2.246 6.13 2.547 8.336.628 1.987-1.73 2.108-3.068 2.658-29.562l.577-27.75h-13.888zm4.599-26.034c1.513.229 3.988.229 5.5 0s.275-.416-2.75-.416-4.263.187-2.75.416m-37.75 4.161c-4.727 2.946-8.161 7.136-11.165 13.623-2.315 4.999-2.775 7.334-2.76 14 .016 6.665.456 8.835 2.636 13 5.688 10.871 16.178 17.777 43.289 28.502 12.314 4.871 21.579 10.064 26.25 14.715 3.554 3.538 4.25 4.871 4.25 8.14 0 3.271-.633 4.482-3.87 7.407-7.184 6.49-32.204 19.712-45.257 23.916-6.882 2.217-8.846 3.833-4.623 3.805 7.062-.046 46.221-16.293 54.511-22.616 7.44-5.675 8.957-12.204 4.849-20.869-4.26-8.985-10.933-13.991-35.211-26.42-18.741-9.594-26.239-15.052-29.267-21.306-3.94-8.141-2.581-13.915 4.915-20.868 4.218-3.912 4.953-5.144 4.953-8.296 0-7.3-6.993-10.788-13.5-6.733m.565 1.545c-2.347 2.827 3.618 8.128 6.878 6.113 1.645-1.016 1.246-4.054-.772-5.88-2.244-2.031-4.541-2.119-6.106-.233m23.185 35.343c-1.787 2.896-3.247 5.596-3.244 6 .008.906 6.106 4.456 6.676 3.887.226-.226.277-3.728.114-7.782l-.296-7.37zm27.75 2.818c0 4.171.338 7.419.75 7.218 4.839-2.357 6.25-3.249 6.25-3.946 0-.984-5.989-10.855-6.586-10.855-.228 0-.414 3.412-.414 7.583m-15.384 41.709c-1.571 1.148-1.688 2.373-1.053 11.015.668 9.112.862 9.762 3.073 10.316 4.48 1.125 5.023.139 5.668-10.283.522-8.432.373-10.019-1.039-11.09-2.112-1.603-4.42-1.588-6.649.042m-10.866 7.052c-1.513 1.408-2.75 2.999-2.75 3.536s1.237 1.953 2.75 3.148l2.75 2.173.315-3.118c.173-1.716.173-4.284 0-5.709l-.315-2.59zm25.25 3.168c0 5.079.158 5.474 1.832 4.578 4.709-2.52 4.927-5.708.584-8.553L139 195.954zm-13.583 33.843c-.286.746-.384 4.233-.218 7.75.287 6.093.427 6.41 2.963 6.703 2.621.303 2.668.204 3.039-6.5.207-3.744-.034-7.37-.535-8.058-1.213-1.664-4.596-1.596-5.249.105"/><path fill="#1976D2" fill-opacity=".983" fill-rule="evenodd" d="M74.567 85.061C62.224 87.127 46.83 99.309 34.839 116.5c-10.599 15.195-11.621 19.263-6.799 27.065 4.376 7.081 14.414 9.047 21.67 4.246l3.889-2.574 1.642 2.861c2.362 4.115 7.46 6.887 12.759 6.937 4.157.04 4.753.386 7.809 4.541 3.819 5.19 8.735 8.981 18.941 14.608 3.987 2.198 7.25 4.218 7.25 4.488s-1.558 2.393-3.463 4.717c-12.192 14.879-9.474 29.693 7.26 39.569 1.491.88 1.516 1.132.203 2.023-.825.56-3.975 1.777-7 2.706-3.025.928-6.512 2.582-7.75 3.675-2.864 2.529-2.919 6.969-.121 9.767 1.842 1.842 2.886 2.049 7.75 1.537 3.092-.326 8.308-1.519 11.592-2.651 3.284-1.133 6.547-1.838 7.25-1.569.89.342 1.279 2.903 1.279 8.416 0 6.303.324 8.048 1.582 8.531 2.217.851 13.681.73 15.052-.158.623-.404 1.306-4.192 1.516-8.418s.653-7.953.983-8.284c.331-.33 4.537.539 9.346 1.933S157.748 243 159.612 243c6.626 0 9.905-7.428 5.138-11.638-1.238-1.093-4.725-2.747-7.75-3.675-3.025-.929-6.175-2.146-7-2.706-1.313-.891-1.288-1.143.203-2.023 5.327-3.144 10.43-7.999 12.471-11.865 4.521-8.567 2.134-19.853-6.032-28.511-2.017-2.139-3.55-3.992-3.405-4.118s3.434-1.817 7.309-3.757c8.66-4.335 16.693-10.574 20.264-15.739 2.44-3.531 3.108-3.896 7.19-3.934 5.207-.048 10.082-2.646 12.643-6.736a293 293 0 0 1 1.988-3.149c.13-.192 1.26.603 2.51 1.768 2.807 2.615 9.118 4.405 12.733 3.611 6.841-1.503 13.126-9.012 13.126-15.684 0-3.073-7.867-16.38-14.936-25.264-10.557-13.267-24.628-22.902-36.017-24.661-10.201-1.576-22.37 2.605-33.159 11.395-4.496 3.662-5.839 4.293-7.346 3.45-2.793-1.563-18.819-2.212-22.546-.913-3.001 1.047-3.563.839-8.85-3.264-7.457-5.789-14.411-9.165-21.62-10.498-3.241-.599-6.148-1.036-6.46-.971-.311.064-2.786.489-5.499.943m-2.723 6.271c-11.463 4.287-24.453 16.139-34.645 31.61-6.26 9.501-7.336 13.065-5.169 17.113 1.343 2.511 6.137 4.951 9.67 4.923 3.697-.03 6.284-2.269 10.659-9.228 3.774-6.001 4.203-6.312 6.612-4.789 1.25.791 1.277 1.465.176 4.51-1.598 4.418-.772 8.593 2.265 11.446 2.775 2.607 8.279 3.379 7.727 1.083-3.971-16.523 4.122-37.501 17.003-44.072 12.159-6.204 25.188 3.695 21.739 16.517-.744 2.766-2.64 5.485-5.968 8.555-5.583 5.151-6.931 9.13-4.613 13.614 1.837 3.552 5.27 6.77 6.446 6.043.48-.297 3.285-4.487 6.233-9.312l5.361-8.772-.183-10.537-.183-10.536-6.586-6.236C99.729 95.065 91.221 90.86 82.259 90.35c-4.188-.238-8.15.135-10.415.982m93.485.602c-6.056 2.18-12.932 6.715-19.579 12.911l-4.75 4.429v22.009l5.589 8.859c3.075 4.872 5.921 8.858 6.326 8.858s1.659-1.012 2.786-2.25c5.733-6.295 5.452-11.926-.847-16.987-5.063-4.068-7.021-7.767-7.021-13.263 0-15.498 17.784-19.556 29.374-6.701 7.73 8.574 11.403 20.023 10.442 32.554l-.602 7.852 2.726-.677c6.303-1.564 9.385-7.684 7.08-14.057-1.101-3.045-1.074-3.719.176-4.51 2.444-1.546 2.892-1.202 7.023 5.386 2.188 3.49 5.118 6.865 6.511 7.5 6.677 3.042 13.159-.353 14.102-7.386.494-3.681.008-4.824-5.516-12.998-11.666-17.263-22.939-27.687-33.958-31.399-7.513-2.531-13.092-2.567-19.862-.13m-42.737 11.786c-1.839.47-1.885 1.499-1.278 28.626.688 30.752.666 30.654 6.686 30.654 6.041 0 6.027.063 6.703-30.359.519-23.349.392-27.968-.792-28.717-1.47-.93-8.017-1.048-11.319-.204m-35.226 6.199c-7.175 4.374-12.524 14.677-13.161 25.348-1.117 18.702 9.018 28.986 41.944 42.56 18.243 7.522 24.168 10.658 29.873 15.812 7.087 6.402 6.187 11.82-3.036 18.29-7.733 5.424-32.806 18.141-40.986 20.787-6.811 2.203-9.053 5.06-3.5 4.459 9.341-1.011 45.775-16.334 54.301-22.837 1.89-1.442 4.325-4.629 5.41-7.083 1.712-3.869 1.822-5.065.831-9.002-2.761-10.965-10.888-17.939-35.84-30.755-18.497-9.501-24.618-13.554-28.855-19.109-2.492-3.268-2.847-4.591-2.847-10.617v-6.885l5.22-4.902c2.872-2.696 5.51-6.054 5.864-7.463.778-3.099-1.187-8.239-3.655-9.56-2.886-1.545-8.179-1.107-11.563.957m68.835.109c-4.629 4.312-3.61 11.317 2.167 14.894 5.565 3.446 8.461 10.814 6.673 16.976-2.162 7.449-8.535 13.443-22.216 20.893-3.746 2.04-6.806 3.934-6.799 4.209.017.634 10.862 7 11.927 7 1.915 0 11.098-4.616 17.248-8.671 7.468-4.923 11.81-9.839 14.939-16.913 4.876-11.023-.119-29.625-9.968-37.122-5.188-3.949-10.568-4.437-13.971-1.266m-66.534.639c-1.349 1.348-.609 4.26 1.448 5.701 2.54 1.779 4.885 1.105 4.885-1.404 0-3.262-4.39-6.241-6.333-4.297m71.372 1.294c-1.662 1.662-1.87 2.486-1.027 4.062 1.337 2.498 3.191 2.515 5.421.051 3.758-4.153-.432-8.075-4.394-4.113m-49.719 35.52-3.18 5.442 3.298 2.039c1.814 1.121 3.582 2.038 3.93 2.038s.632-3.375.632-7.5-.338-7.491-.75-7.48-2.181 2.468-3.93 5.461M140 149.5c0 4.125.338 7.498.75 7.496s2.2-.887 3.972-1.968l3.221-1.964-3.221-5.512c-1.772-3.032-3.56-5.521-3.972-5.532s-.75 3.355-.75 7.48m-35.378 36.197c-10.321 10.281-10.267 22.643.127 29.516 8.181 5.41 9.411 5.773 13.101 3.865l3.333-1.724-6.639-4.325c-3.651-2.379-7.292-5.259-8.091-6.4-3.512-5.013-.504-10.848 8.834-17.137l4.98-3.353-3.825-1.599c-7.115-2.972-7.736-2.912-11.82 1.157M124.2 191.2c-.758.758-1.2 4.566-1.2 10.345 0 7.59.311 9.427 1.829 10.8 2.377 2.151 4.462 2.095 6.516-.174 2.37-2.619 2.432-20.659.073-21.564-2.549-.978-5.924-.701-7.218.593m-11.026 7.114c-2.833 3.017-2.748 5.08.291 7.071 1.355.888 2.705 1.615 3 1.615s.535-2.475.535-5.5-.372-5.5-.826-5.5-1.804 1.042-3 2.314M139 202.03v6.03l3-2.218c1.65-1.22 3-2.955 3-3.856 0-1.579-3.912-5.986-5.314-5.986-.378 0-.686 2.713-.686 6.03m-1 26.985c-1.306.858-1.312 1.106-.047 1.92 2.135 1.373 16.075 5.833 19.46 6.227 4.339.504 4.26-1.79-.111-3.195-2.091-.672-6.376-2.289-9.522-3.594-6.33-2.626-7.583-2.8-9.78-1.358m-13.558 6.276c-.3.781-.409 4.297-.243 7.814l.301 6.395 3.793.313 3.793.313-.293-7.813-.293-7.813-3.257-.314c-2.12-.204-3.447.182-3.801 1.105"/></svg>